<svg xmlns="http://www.w3.org/2000/svg" width="20" height="20" fill="#FFF" style=""><rect id="backgroundrect" width="100%" height="100%" x="0" y="0" fill="none" stroke="none"/>
  
<g class="currentLayer" style=""><title>Layer 1</title><path fill-rule="evenodd" d="M9.646,2.1562041736245163 a0.5,0.5 0 0 1 0.7080000000000006,0 l6,6 a0.5,0.5 0 0 1 -0.7080000000000006,0.7080000000000006 L10,3.217204173624518 l-5.646,5.647 a0.5,0.5 0 0 1 -0.7080000000000006,-0.7080000000000006 l6,-6 z" clip-rule="evenodd" id="svg_1" class=""/><path fill-rule="evenodd" d="M3.727632614135743,11.217428917348386 a0.5,0.5 0 0 1 0.7080000000000006,0 L10.081632614135742,16.864428917348384 l5.646,-5.647 a0.5,0.5 0 0 1 0.7080000000000006,0.7080000000000006 l-6,6 a0.5,0.5 0 0 1 -0.7080000000000006,0 l-6,-6 a0.5,0.5 0 0 1 0,-0.7080000000000006 z" clip-rule="evenodd" class="" id="svg_2"/></g></svg>