<svg fill="#FFF" id="Capa_1" enable-background="new 0 0 512 512" height="512" viewBox="0 0 512 512" width="512" xmlns="http://www.w3.org/2000/svg"><g><path d="m470.74 324.289c-17.72-17.374-33.711-38.317-47.527-62.247l-1.501-2.6h7.352c9.654 0 17.507-7.854 17.507-17.507v-4.386c0-32.848-10.713-63.828-30.979-89.588-2.563-3.258-7.281-3.819-10.536-1.258-3.257 2.562-3.82 7.279-1.258 10.536 18.165 23.089 27.767 50.86 27.767 80.31v4.386c0 1.379-1.122 2.501-2.501 2.501h-19.382c-.676-.092-1.366-.096-2.052 0h-48.596c-1.379 0-2.501-1.122-2.501-2.501v-4.386c0-30.307-24.656-54.964-54.964-54.964h-147.78c-4.144 0-7.503 3.359-7.503 7.503s3.359 7.503 7.503 7.503h147.78c22.033 0 39.957 17.925 39.957 39.957v4.386c0 9.654 7.854 17.507 17.507 17.507h7.352l-.735 1.273c-14.113 24.446-30.479 45.95-48.64 63.916-20.7 20.476-32.239 47.772-32.493 76.859-.049 5.583.334 11.201 1.137 16.697.546 3.733 3.751 6.419 7.415 6.419.361 0 .726-.026 1.094-.08 4.1-.599 6.938-4.409 6.34-8.509-.692-4.737-1.022-9.58-.98-14.396.219-25.098 10.178-48.651 28.041-66.322 19.113-18.907 36.3-41.476 51.083-67.081l5.067-8.777h20.67l5.833 10.103c14.496 25.108 31.325 47.132 50.016 65.459 18.279 17.922 28.345 41.88 28.345 67.461 0 25.672-10.117 49.691-28.486 67.631-18.363 17.935-42.625 27.499-68.334 26.87-32.48-.766-61.956-18.052-78.848-46.238-2.131-3.555-6.74-4.71-10.293-2.579-3.554 2.13-4.709 6.739-2.579 10.293 19.555 32.628 53.71 52.638 91.366 53.526.892.021 1.783.031 2.673.031 28.784 0 55.86-11.009 76.501-31.168 21.285-20.788 33.007-48.619 33.007-78.367 0-29.643-11.665-57.406-32.845-78.173z"/><path d="m114.273 182.585h-24.167v-75.032h211.463c27.898 0 54.487 8.703 76.894 25.169 3.34 2.455 8.037 1.736 10.489-1.603 2.454-3.339 1.736-8.036-1.603-10.489-25.002-18.373-54.664-28.084-85.781-28.084h-88.223v-20.01c9.297 1.015 18.684 3.036 27.984 6.061 11.855 3.856 24.11 6.251 31.983 6.251 21.359 0 38.735-17.377 38.735-38.735s-17.376-38.735-38.734-38.735c-7.872 0-20.127 2.396-31.983 6.252-9.325 3.033-18.731 5.054-28.051 6.067-.683-10.973-9.801-19.697-20.942-19.697h-27.011c-11.143 0-20.261 8.726-20.943 19.7-9.321-1.013-18.723-3.036-28.05-6.07-11.857-3.856-24.112-6.252-31.983-6.252-21.359 0-38.735 17.377-38.735 38.735s17.376 38.736 38.735 38.736c7.872 0 20.128-2.396 31.983-6.251 9.301-3.025 18.686-5.045 27.984-6.06v20.009h-118.394c-9.654 0-17.507 7.854-17.507 17.507v70.03c0 9.654 7.854 17.507 17.507 17.507h88.35c4.144 0 7.503-3.359 7.503-7.503s-3.36-7.503-7.503-7.503zm131.699-154.684c11.715-3.81 22.173-5.516 27.341-5.516 13.084 0 23.729 10.645 23.729 23.729s-10.645 23.729-23.729 23.729c-5.169 0-15.627-1.705-27.341-5.516-10.82-3.519-21.772-5.828-32.626-6.889v-22.658c10.855-1.062 21.803-3.359 32.626-6.879zm-134.281 36.426c-11.714 3.81-22.173 5.516-27.341 5.516-13.084 0-23.729-10.645-23.729-23.729s10.645-23.729 23.729-23.729c5.168 0 15.626 1.706 27.341 5.516 10.826 3.521 21.768 5.81 32.626 6.871v22.669c-10.855 1.062-21.805 3.366-32.626 6.886zm47.632-43.318c0-3.31 2.693-6.003 6.003-6.003h27.011c3.31 0 6.003 2.693 6.003 6.003v71.538h-39.017zm-135.901 159.075v-70.03c0-1.379 1.122-2.501 2.501-2.501h49.177v75.032h-49.177c-1.379 0-2.501-1.122-2.501-2.501z"/><path d="m377.493 314.164c-4.144 0-7.503 3.359-7.503 7.503v15.226h-1.415c-4.144 0-7.503 3.359-7.503 7.503v104.585c0 1.996.795 3.909 2.209 5.317 1.406 1.4 3.31 2.186 5.294 2.186h.033c.036 0 .535-.002 1.381-.006v13.535c0 4.144 3.359 7.503 7.503 7.503s7.503-3.359 7.503-7.503v-13.596c5.249-.02 10.742-.039 14.821-.049v13.646c0 4.144 3.359 7.503 7.503 7.503s7.503-3.359 7.503-7.503v-15.251c14.518-4.513 25.091-18.073 25.091-34.056 0-13.152-7.163-24.655-17.788-30.835 5.207-5.631 8.397-13.154 8.397-21.41 0-11.624-6.32-21.794-15.699-27.273v-19.522c0-4.144-3.359-7.503-7.503-7.503s-7.503 3.359-7.503 7.503v15.248c-.287-.008-.573-.022-.863-.022h-13.959v-15.226c.001-4.144-3.358-7.503-7.502-7.503zm26.767 127.19c-5.122 0-19.305.055-28.182.092v-41.342l28.182-.046c11.385 0 20.648 9.263 20.648 20.648 0 11.386-9.263 20.648-20.648 20.648zm11.256-72.892c0 9.132-7.429 16.562-16.562 16.562-2.241 0-22.876.029-22.876.029v-33.153h22.876c9.133-.001 16.562 7.429 16.562 16.562z"/></g></svg>